# xmcd
#
# Track frame offsets: 
#        150
#        16906
#        39853
#        61320
#        82784
#        103852
#        123640
#        142742
#        160608
#        180367
#        198783
#        219303
#        239142
#        259792
#        279493
#        297270
#        318894
#
# Disc length: 4275 seconds
#
# Revision: 1
# Processed by: cddbd v1.5.2PL0 Copyright (c) Steve Scherf et al.
# Submitted via: ExactAudioCopy v0.99pb5
#
DISCID=e010b111
DTITLE=Various Artist - Super de chef vol.2
DYEAR=2006
DGENRE=Manele
TTITLE0=Nicu Paleru - Unde e ea
TTITLE1=Nicolae Guta - Dragostea de nar mai fi
TTITLE2=Daniela Gyorfi si Liviu Pustiu - Nu stiu pentru cine
TTITLE3=Nicolae Guta si Mioara - Inima-mi spune sa te las
TTITLE4=Vali Vijelie - Asi pleca
TTITLE5=Denisa si Cristian Rizescu - Vino, vino
TTITLE6=Liviu - Ce-i al meu e si al tau
TTITLE7=Adi de la Valcea - Daca viata ne desparte
TTITLE8=Adrian Minune si Mihaela - Inima imi spune
TTITLE9=Florin Minune - Ti-am jurat iubire
TTITLE10=Denisa, Sorin Copilul de Aur, Play Aj - Priveste in ochii mei
TTITLE11=Cristian Rizescu si Play Aj - Doar atat mi-a ramas acum
TTITLE12=Florin Peste, Diana si Play Aj - Lacrimi de iubire
TTITLE13=Florin Salam - Viata mea, fac ce vreau cu ea
TTITLE14=Costel Ciofu - De ce te amagesti
TTITLE15=Nicoleta Guta - Daca vrei ochii mei
TTITLE16=Promo
EXTD=
EXTT0=
EXTT1=
EXTT2=
EXTT3=
EXTT4=
EXTT5=
EXTT6=
EXTT7=
EXTT8=
EXTT9=
EXTT10=
EXTT11=
EXTT12=
EXTT13=
EXTT14=
EXTT15=
EXTT16=
PLAYORDER=
